<?xml version="1.0" encoding="UTF-8" standalone="no"?>
<!-- Created with matplotlib (https://matplotlib.org/) -->

<svg
   height="297pt"
   version="1.1"
   viewBox="0 0 600 297"
   width="600pt"
   id="svg378"
   sodipodi:docname="approximate.svg"
   inkscape:version="1.1.1 (3bf5ae0d25, 2021-09-20)"
   xmlns:inkscape="http://www.inkscape.org/namespaces/inkscape"
   xmlns:sodipodi="http://sodipodi.sourceforge.net/DTD/sodipodi-0.dtd"
   xmlns:xlink="http://www.w3.org/1999/xlink"
   xmlns="http://www.w3.org/2000/svg"
   xmlns:svg="http://www.w3.org/2000/svg"
   xmlns:rdf="http://www.w3.org/1999/02/22-rdf-syntax-ns#"
   xmlns:cc="http://creativecommons.org/ns#"
   xmlns:dc="http://purl.org/dc/elements/1.1/">
  <sodipodi:namedview
     id="namedview380"
     pagecolor="#ffffff"
     bordercolor="#666666"
     borderopacity="1.0"
     inkscape:pageshadow="2"
     inkscape:pageopacity="0.0"
     inkscape:pagecheckerboard="0"
     inkscape:document-units="pt"
     showgrid="false"
     inkscape:zoom="3.9656905"
     inkscape:cx="208.41263"
     inkscape:cy="76.027112"
     inkscape:window-width="1920"
     inkscape:window-height="1001"
     inkscape:window-x="2391"
     inkscape:window-y="796"
     inkscape:window-maximized="1"
     inkscape:current-layer="g367" />
  <metadata
     id="metadata2">
    <rdf:RDF>
      <cc:Work>
        <dc:type
           rdf:resource="http://purl.org/dc/dcmitype/StillImage" />
        <dc:date>2022-01-01T17:16:23.737766</dc:date>
        <dc:format>image/svg+xml</dc:format>
        <dc:creator>
          <cc:Agent>
            <dc:title>Matplotlib v3.3.4, https://matplotlib.org/</dc:title>
          </cc:Agent>
        </dc:creator>
      </cc:Work>
    </rdf:RDF>
  </metadata>
  <defs
     id="defs6">
    <style
       type="text/css"
       id="style4">*{stroke-linecap:butt;stroke-linejoin:round;}</style>
  </defs>
  <g
     id="figure_1"
     transform="translate(-54.467185,-36.311457)">
    <g
       id="patch_1">
      <path
         d="M 0,360 H 720 V 0 H 0 Z"
         style="fill:none"
         id="path8" />
    </g>
    <g
       id="axes_1">
      <g
         id="patch_2">
        <path
           d="M 90,315 H 648 V 43.2 H 90 Z"
           style="fill:#ffffff"
           id="path11" />
      </g>
      <g
         id="matplotlib.axis_1">
        <g
           id="xtick_1">
          <g
             id="line2d_1">
            <defs
               id="defs15">
              <path
                 d="M 0,0 V 3.5"
                 id="mb81dda1c72"
                 style="stroke:#000000;stroke-width:0.8" />
            </defs>
            <g
               id="g19">
              <use
                 style="stroke:#000000;stroke-width:0.8"
                 x="166.09091"
                 xlink:href="#mb81dda1c72"
                 y="315"
                 id="use17"
                 width="100%"
                 height="100%" />
            </g>
          </g>
          <g
             id="text_1">
            <!-- −4 -->
            <g
               transform="matrix(0.1,0,0,-0.1,158.71981,329.59844)"
               id="g30">
              <defs
                 id="defs24">
                <path
                   d="M 10.59375,35.5 H 73.1875 V 27.203125 H 10.59375 Z"
                   id="DejaVuSans-8722" />
                <path
                   d="M 37.796875,64.3125 12.890625,25.390625 h 24.90625 z m -2.59375,8.59375 h 12.40625 V 25.390625 h 10.40625 V 17.1875 H 47.609375 V 0 h -9.8125 V 17.1875 H 4.890625 v 9.515625 z"
                   id="DejaVuSans-52" />
              </defs>
              <use
                 xlink:href="#DejaVuSans-8722"
                 id="use26"
                 x="0"
                 y="0"
                 width="100%"
                 height="100%" />
              <use
                 x="83.789062"
                 xlink:href="#DejaVuSans-52"
                 id="use28"
                 y="0"
                 width="100%"
                 height="100%" />
            </g>
          </g>
        </g>
        <g
           id="xtick_2">
          <g
             id="line2d_2">
            <g
               id="g36">
              <use
                 style="stroke:#000000;stroke-width:0.8"
                 x="267.54544"
                 xlink:href="#mb81dda1c72"
                 y="315"
                 id="use34"
                 width="100%"
                 height="100%" />
            </g>
          </g>
          <g
             id="text_2">
            <!-- −2 -->
            <g
               transform="matrix(0.1,0,0,-0.1,260.17436,329.59844)"
               id="g46">
              <defs
                 id="defs40">
                <path
                   d="M 19.1875,8.296875 H 53.609375 V 0 H 7.328125 v 8.296875 q 5.609375,5.8125 15.296875,15.59375 9.703125,9.796875 12.1875,12.640625 4.734375,5.3125 6.609375,9 1.890625,3.6875 1.890625,7.25 0,5.8125 -4.078125,9.46875 -4.078125,3.671875 -10.625,3.671875 -4.640625,0 -9.796875,-1.609375 -5.140625,-1.609375 -11,-4.890625 v 9.96875 Q 13.765625,71.78125 18.9375,73 q 5.1875,1.21875 9.484375,1.21875 11.328125,0 18.0625,-5.671875 6.734375,-5.65625 6.734375,-15.125 0,-4.5 -1.6875,-8.53125 Q 49.859375,40.875 45.40625,35.40625 44.1875,33.984375 37.640625,27.21875 31.109375,20.453125 19.1875,8.296875 Z"
                   id="DejaVuSans-50" />
              </defs>
              <use
                 xlink:href="#DejaVuSans-8722"
                 id="use42"
                 x="0"
                 y="0"
                 width="100%"
                 height="100%" />
              <use
                 x="83.789062"
                 xlink:href="#DejaVuSans-50"
                 id="use44"
                 y="0"
                 width="100%"
                 height="100%" />
            </g>
          </g>
        </g>
        <g
           id="xtick_3">
          <g
             id="line2d_3">
            <g
               id="g52">
              <use
                 style="stroke:#000000;stroke-width:0.8"
                 x="369"
                 xlink:href="#mb81dda1c72"
                 y="315"
                 id="use50"
                 width="100%"
                 height="100%" />
            </g>
          </g>
          <g
             id="text_3">
            <!-- 0 -->
            <g
               transform="matrix(0.1,0,0,-0.1,365.81875,329.59844)"
               id="g60">
              <defs
                 id="defs56">
                <path
                   d="m 31.78125,66.40625 q -7.609375,0 -11.453125,-7.5 Q 16.5,51.421875 16.5,36.375 q 0,-14.984375 3.828125,-22.484375 3.84375,-7.5 11.453125,-7.5 7.671875,0 11.5,7.5 3.84375,7.5 3.84375,22.484375 0,15.046875 -3.84375,22.53125 -3.828125,7.5 -11.5,7.5 z m 0,7.8125 q 12.265625,0 18.734375,-9.703125 6.46875,-9.6875 6.46875,-28.140625 0,-18.40625 -6.46875,-28.109375 -6.46875,-9.6875 -18.734375,-9.6875 -12.25,0 -18.71875,9.6875 Q 6.59375,17.96875 6.59375,36.375 q 0,18.453125 6.46875,28.140625 6.46875,9.703125 18.71875,9.703125 z"
                   id="DejaVuSans-48" />
              </defs>
              <use
                 xlink:href="#DejaVuSans-48"
                 id="use58"
                 x="0"
                 y="0"
                 width="100%"
                 height="100%" />
            </g>
          </g>
        </g>
        <g
           id="xtick_4">
          <g
             id="line2d_4">
            <g
               id="g66">
              <use
                 style="stroke:#000000;stroke-width:0.8"
                 x="470.45456"
                 xlink:href="#mb81dda1c72"
                 y="315"
                 id="use64"
                 width="100%"
                 height="100%" />
            </g>
          </g>
          <g
             id="text_4">
            <!-- 2 -->
            <g
               transform="matrix(0.1,0,0,-0.1,467.2733,329.59844)"
               id="g71">
              <use
                 xlink:href="#DejaVuSans-50"
                 id="use69"
                 x="0"
                 y="0"
                 width="100%"
                 height="100%" />
            </g>
          </g>
        </g>
        <g
           id="xtick_5">
          <g
             id="line2d_5">
            <g
               id="g77">
              <use
                 style="stroke:#000000;stroke-width:0.8"
                 x="571.90912"
                 xlink:href="#mb81dda1c72"
                 y="315"
                 id="use75"
                 width="100%"
                 height="100%" />
            </g>
          </g>
          <g
             id="text_5">
            <!-- 4 -->
            <g
               transform="matrix(0.1,0,0,-0.1,568.72784,329.59844)"
               id="g82">
              <use
                 xlink:href="#DejaVuSans-52"
                 id="use80"
                 x="0"
                 y="0"
                 width="100%"
                 height="100%" />
            </g>
          </g>
        </g>
      </g>
      <g
         id="matplotlib.axis_2">
        <g
           id="ytick_1">
          <g
             id="line2d_6">
            <defs
               id="defs88">
              <path
                 d="M 0,0 H -3.5"
                 id="m8ff7d8a356"
                 style="stroke:#000000;stroke-width:0.8" />
            </defs>
            <g
               id="g92">
              <use
                 style="stroke:#000000;stroke-width:0.8"
                 x="90"
                 xlink:href="#m8ff7d8a356"
                 y="298.18939"
                 id="use90"
                 width="100%"
                 height="100%" />
            </g>
          </g>
          <g
             id="text_6">
            <!-- 0.00 -->
            <g
               transform="matrix(0.1,0,0,-0.1,60.734375,301.98861)"
               id="g106">
              <defs
                 id="defs96">
                <path
                   d="M 10.6875,12.40625 H 21 V 0 H 10.6875 Z"
                   id="DejaVuSans-46" />
              </defs>
              <use
                 xlink:href="#DejaVuSans-48"
                 id="use98"
                 x="0"
                 y="0"
                 width="100%"
                 height="100%" />
              <use
                 x="63.623047"
                 xlink:href="#DejaVuSans-46"
                 id="use100"
                 y="0"
                 width="100%"
                 height="100%" />
              <use
                 x="95.410156"
                 xlink:href="#DejaVuSans-48"
                 id="use102"
                 y="0"
                 width="100%"
                 height="100%" />
              <use
                 x="159.0332"
                 xlink:href="#DejaVuSans-48"
                 id="use104"
                 y="0"
                 width="100%"
                 height="100%" />
            </g>
          </g>
        </g>
        <g
           id="ytick_2">
          <g
             id="line2d_7">
            <g
               id="g112">
              <use
                 style="stroke:#000000;stroke-width:0.8"
                 x="90"
                 xlink:href="#m8ff7d8a356"
                 y="258.75061"
                 id="use110"
                 width="100%"
                 height="100%" />
            </g>
          </g>
          <g
             id="text_7">
            <!-- 0.05 -->
            <g
               transform="matrix(0.1,0,0,-0.1,60.734375,262.54982)"
               id="g126">
              <defs
                 id="defs116">
                <path
                   d="m 10.796875,72.90625 h 38.71875 v -8.3125 h -29.6875 V 46.734375 q 2.140625,0.734375 4.28125,1.09375 2.15625,0.359375 4.3125,0.359375 Q 40.625,48.1875 47.75,41.5 54.890625,34.8125 54.890625,23.390625 54.890625,11.625 47.5625,5.09375 40.234375,-1.421875 26.90625,-1.421875 q -4.59375,0 -9.359375,0.78125 -4.75,0.78125 -9.828125,2.34375 V 11.625 q 4.390625,-2.390625 9.078125,-3.5625 4.6875,-1.171875 9.90625,-1.171875 8.453125,0 13.375,4.4375 4.9375,4.4375 4.9375,12.0625 0,7.609375 -4.9375,12.046875 -4.921875,4.453125 -13.375,4.453125 -3.953125,0 -7.890625,-0.875 -3.921875,-0.875 -8.015625,-2.734375 z"
                   id="DejaVuSans-53" />
              </defs>
              <use
                 xlink:href="#DejaVuSans-48"
                 id="use118"
                 x="0"
                 y="0"
                 width="100%"
                 height="100%" />
              <use
                 x="63.623047"
                 xlink:href="#DejaVuSans-46"
                 id="use120"
                 y="0"
                 width="100%"
                 height="100%" />
              <use
                 x="95.410156"
                 xlink:href="#DejaVuSans-48"
                 id="use122"
                 y="0"
                 width="100%"
                 height="100%" />
              <use
                 x="159.0332"
                 xlink:href="#DejaVuSans-53"
                 id="use124"
                 y="0"
                 width="100%"
                 height="100%" />
            </g>
          </g>
        </g>
        <g
           id="ytick_3">
          <g
             id="line2d_8">
            <g
               id="g132">
              <use
                 style="stroke:#000000;stroke-width:0.8"
                 x="90"
                 xlink:href="#m8ff7d8a356"
                 y="219.31181"
                 id="use130"
                 width="100%"
                 height="100%" />
            </g>
          </g>
          <g
             id="text_8">
            <!-- 0.10 -->
            <g
               transform="matrix(0.1,0,0,-0.1,60.734375,223.11104)"
               id="g146">
              <defs
                 id="defs136">
                <path
                   d="m 12.40625,8.296875 h 16.109375 v 55.625 L 10.984375,60.40625 v 8.984375 l 17.4375,3.515625 H 38.28125 V 8.296875 H 54.390625 V 0 H 12.40625 Z"
                   id="DejaVuSans-49" />
              </defs>
              <use
                 xlink:href="#DejaVuSans-48"
                 id="use138"
                 x="0"
                 y="0"
                 width="100%"
                 height="100%" />
              <use
                 x="63.623047"
                 xlink:href="#DejaVuSans-46"
                 id="use140"
                 y="0"
                 width="100%"
                 height="100%" />
              <use
                 x="95.410156"
                 xlink:href="#DejaVuSans-49"
                 id="use142"
                 y="0"
                 width="100%"
                 height="100%" />
              <use
                 x="159.0332"
                 xlink:href="#DejaVuSans-48"
                 id="use144"
                 y="0"
                 width="100%"
                 height="100%" />
            </g>
          </g>
        </g>
        <g
           id="ytick_4">
          <g
             id="line2d_9">
            <g
               id="g152">
              <use
                 style="stroke:#000000;stroke-width:0.8"
                 x="90"
                 xlink:href="#m8ff7d8a356"
                 y="179.87303"
                 id="use150"
                 width="100%"
                 height="100%" />
            </g>
          </g>
          <g
             id="text_9">
            <!-- 0.15 -->
            <g
               transform="matrix(0.1,0,0,-0.1,60.734375,183.67225)"
               id="g163">
              <use
                 xlink:href="#DejaVuSans-48"
                 id="use155"
                 x="0"
                 y="0"
                 width="100%"
                 height="100%" />
              <use
                 x="63.623047"
                 xlink:href="#DejaVuSans-46"
                 id="use157"
                 y="0"
                 width="100%"
                 height="100%" />
              <use
                 x="95.410156"
                 xlink:href="#DejaVuSans-49"
                 id="use159"
                 y="0"
                 width="100%"
                 height="100%" />
              <use
                 x="159.0332"
                 xlink:href="#DejaVuSans-53"
                 id="use161"
                 y="0"
                 width="100%"
                 height="100%" />
            </g>
          </g>
        </g>
        <g
           id="ytick_5">
          <g
             id="line2d_10">
            <g
               id="g169">
              <use
                 style="stroke:#000000;stroke-width:0.8"
                 x="90"
                 xlink:href="#m8ff7d8a356"
                 y="140.43425"
                 id="use167"
                 width="100%"
                 height="100%" />
            </g>
          </g>
          <g
             id="text_10">
            <!-- 0.20 -->
            <g
               transform="matrix(0.1,0,0,-0.1,60.734375,144.23347)"
               id="g180">
              <use
                 xlink:href="#DejaVuSans-48"
                 id="use172"
                 x="0"
                 y="0"
                 width="100%"
                 height="100%" />
              <use
                 x="63.623047"
                 xlink:href="#DejaVuSans-46"
                 id="use174"
                 y="0"
                 width="100%"
                 height="100%" />
              <use
                 x="95.410156"
                 xlink:href="#DejaVuSans-50"
                 id="use176"
                 y="0"
                 width="100%"
                 height="100%" />
              <use
                 x="159.0332"
                 xlink:href="#DejaVuSans-48"
                 id="use178"
                 y="0"
                 width="100%"
                 height="100%" />
            </g>
          </g>
        </g>
        <g
           id="ytick_6">
          <g
             id="line2d_11">
            <g
               id="g186">
              <use
                 style="stroke:#000000;stroke-width:0.8"
                 x="90"
                 xlink:href="#m8ff7d8a356"
                 y="100.99547"
                 id="use184"
                 width="100%"
                 height="100%" />
            </g>
          </g>
          <g
             id="text_11">
            <!-- 0.25 -->
            <g
               transform="matrix(0.1,0,0,-0.1,60.734375,104.79469)"
               id="g197">
              <use
                 xlink:href="#DejaVuSans-48"
                 id="use189"
                 x="0"
                 y="0"
                 width="100%"
                 height="100%" />
              <use
                 x="63.623047"
                 xlink:href="#DejaVuSans-46"
                 id="use191"
                 y="0"
                 width="100%"
                 height="100%" />
              <use
                 x="95.410156"
                 xlink:href="#DejaVuSans-50"
                 id="use193"
                 y="0"
                 width="100%"
                 height="100%" />
              <use
                 x="159.0332"
                 xlink:href="#DejaVuSans-53"
                 id="use195"
                 y="0"
                 width="100%"
                 height="100%" />
            </g>
          </g>
        </g>
        <g
           id="ytick_7">
          <g
             id="line2d_12">
            <g
               id="g203">
              <use
                 style="stroke:#000000;stroke-width:0.8"
                 x="90"
                 xlink:href="#m8ff7d8a356"
                 y="61.556686"
                 id="use201"
                 width="100%"
                 height="100%" />
            </g>
          </g>
          <g
             id="text_12">
            <!-- 0.30 -->
            <g
               transform="matrix(0.1,0,0,-0.1,60.734375,65.355904)"
               id="g217">
              <defs
                 id="defs207">
                <path
                   d="M 40.578125,39.3125 Q 47.65625,37.796875 51.625,33 q 3.984375,-4.78125 3.984375,-11.8125 0,-10.78125 -7.421875,-16.703125 -7.421875,-5.90625 -21.09375,-5.90625 -4.578125,0 -9.4375,0.90625 -4.859375,0.90625 -10.03125,2.71875 v 9.515625 q 4.09375,-2.390625 8.96875,-3.609375 4.890625,-1.21875 10.21875,-1.21875 9.265625,0 14.125,3.65625 4.859375,3.65625 4.859375,10.640625 0,6.453125 -4.515625,10.078125 -4.515625,3.640625 -12.5625,3.640625 h -8.5 v 8.109375 h 8.890625 q 7.265625,0 11.125,2.90625 3.859375,2.90625 3.859375,8.375 0,5.609375 -3.984375,8.609375 -3.96875,3.015625 -11.390625,3.015625 -4.0625,0 -8.703125,-0.890625 Q 15.375,64.15625 9.8125,62.3125 v 8.78125 q 5.625,1.5625 10.53125,2.34375 4.90625,0.78125 9.25,0.78125 11.234375,0 17.765625,-5.109375 6.546875,-5.09375 6.546875,-13.78125 0,-6.0625 -3.46875,-10.234375 -3.46875,-4.171875 -9.859375,-5.78125 z"
                   id="DejaVuSans-51" />
              </defs>
              <use
                 xlink:href="#DejaVuSans-48"
                 id="use209"
                 x="0"
                 y="0"
                 width="100%"
                 height="100%" />
              <use
                 x="63.623047"
                 xlink:href="#DejaVuSans-46"
                 id="use211"
                 y="0"
                 width="100%"
                 height="100%" />
              <use
                 x="95.410156"
                 xlink:href="#DejaVuSans-51"
                 id="use213"
                 y="0"
                 width="100%"
                 height="100%" />
              <use
                 x="159.0332"
                 xlink:href="#DejaVuSans-48"
                 id="use215"
                 y="0"
                 width="100%"
                 height="100%" />
            </g>
          </g>
        </g>
      </g>
      <g
         id="line2d_13">
        <path
           clip-path="url(#pc693c5965e)"
           d="m 115.36364,298.18939 3.04973,-1.08395 3.04974,-0.88239 3.04973,-0.69372 4.06632,-0.65376 4.06631,-0.37184 4.06632,-0.12046 4.06631,0.10033 5.08289,0.38937 5.0829,0.62694 6.09947,0.98186 10.16579,1.9255 10.16578,1.87297 6.09947,0.89992 5.0829,0.52976 4.06631,0.23672 4.06631,0.0373 4.06632,-0.19267 4.06631,-0.4532 3.04974,-0.52926 3.04974,-0.7059 3.04973,-0.89542 3.04974,-1.09785 3.04973,-1.31207 3.04974,-1.53455 3.04973,-1.76456 3.04974,-2.00208 3.04974,-2.24713 3.04973,-2.4997 3.04974,-2.7598 3.04973,-3.02743 3.04974,-3.30257 3.04974,-3.58523 3.04973,-3.87544 3.04974,-4.17314 3.04973,-4.47839 3.04974,-4.79116 3.04973,-5.11144 4.06632,-7.32648 4.06631,-7.91361 4.06632,-8.41303 5.08289,-11.02642 9.14921,-20.5301 7.11605,-15.80113 5.08289,-10.78287 4.06632,-8.13468 4.06631,-7.56091 3.04974,-5.21817 3.04973,-4.77112 3.04974,-4.27084 3.04973,-3.74502 3.04974,-3.26832 3.04974,-2.85321 3.04973,-2.4997 3.04974,-2.20775 4.06631,-2.59601 5.08289,-2.89154 9.14921,-5.07728 4.06632,-2.5598 3.04973,-2.17003 3.04974,-2.45292 3.04974,-2.79739 3.04973,-3.20344 3.04974,-3.65446 3.04973,-4.039896 4.06632,-5.79479 11.18236,-16.310102 3.04974,-4.026432 3.04973,-3.636374 2.03316,-2.152832 2.03316,-1.897396 2.03316,-1.609128 2.03315,-1.288031 2.03316,-0.934101 2.03316,-0.547342 2.03315,-0.127751 1.01658,0.103731 1.01658,0.22094 1.01658,0.342253 1.01658,0.46767 1.01658,0.597191 1.01658,0.730815 2.03315,1.878921 2.03316,2.462351 2.03316,3.054023 2.03315,3.612784 2.03316,4.134648 2.03316,4.619615 2.03316,5.067687 3.04973,8.36095 3.04974,9.161566 3.04973,9.83765 4.06632,13.95334 5.08289,18.37089 14.2321,52.22848 4.06632,13.86332 3.04973,9.74959 3.04974,9.07434 3.04973,8.39284 3.04974,7.73866 3.04974,7.11184 3.04973,6.51238 3.04974,5.94028 3.04973,5.39554 3.04974,4.87814 3.04973,4.38812 3.04974,3.92544 3.04974,3.49013 3.04973,3.08217 3.04974,2.70157 3.04973,2.34832 3.04974,2.02244 3.04973,1.72391 3.04974,1.4527 3.04974,1.20481 3.04973,0.97282 3.04974,0.75593 3.04973,0.55414 3.04974,0.36745 4.06631,0.2256 4.06632,-0.0437 4.06631,-0.27718 4.06632,-0.47489 5.08289,-0.81712 6.09947,-1.21612 22.36473,-4.76333 5.08289,-0.7341 4.06632,-0.39034 4.06631,-0.17654 4.06632,0.0731 3.04973,0.24013 3.04974,0.41575 3.04974,0.60648 3.04973,0.81229 3.04974,1.03321 3.04973,1.26923 v 0"
           style="fill:none;stroke:#1f77b4;stroke-width:1.5;stroke-linecap:square"
           id="path222" />
      </g>
      <g
         id="line2d_14">
        <path
           clip-path="url(#pc693c5965e)"
           d="m 115.36364,298.15797 30.94363,-0.17345 16.48637,-0.30364 11.87018,-0.43289 9.43527,-0.55946 7.96418,-0.68894 6.94964,-0.81902 6.23945,-0.95556 5.68146,-1.09226 5.22491,-1.22698 4.92054,-1.38239 4.61618,-1.52554 4.41328,-1.69158 4.21036,-1.84993 4.05818,-2.02305 3.95673,-2.21954 3.85527,-2.4161 3.80455,-2.64725 3.75382,-2.8845 3.70309,-3.12603 3.70309,-3.41873 3.70309,-3.72425 3.70309,-4.04112 3.75382,-4.42958 3.80454,-4.83936 3.85528,-5.26841 3.95672,-5.79061 4.05818,-6.34053 4.21037,-7.00026 4.36255,-7.69133 4.61618,-8.59781 4.92054,-9.64227 5.42782,-11.13735 6.29018,-13.43571 8.47146,-18.66737 14.05145,-30.98081 5.83364,-12.2804 4.81909,-9.64508 4.21036,-7.947757 3.80455,-6.723669 3.50018,-5.748227 3.24654,-4.916951 3.04364,-4.216745 2.89145,-3.630009 2.68855,-3.028787 2.58709,-2.585306 2.43491,-2.127736 2.33346,-1.753021 2.23199,-1.408736 2.18128,-1.1188 2.13054,-0.843123 2.07982,-0.582525 2.02909,-0.337635 2.02909,-0.10883 1.97837,0.114485 2.02909,0.343345 2.02909,0.57116 2.07982,0.820169 2.13054,1.084031 2.18127,1.362021 2.28273,1.693804 2.38418,2.055765 2.48564,2.446685 2.58709,2.86473 2.73928,3.372934 2.89145,3.921209 3.09436,4.583063 3.29727,5.292417 3.55092,6.130227 3.85527,7.106738 4.31181,8.427734 4.92055,10.12209 5.98582,12.84625 9.08018,20.08364 11.81945,26.04603 6.4931,13.75897 5.52927,11.20866 5.022,9.68583 4.66691,8.52541 4.41327,7.60737 4.26109,6.90515 4.10891,6.2377 4.00745,5.68069 3.90601,5.15384 3.85527,4.71983 3.80454,4.30693 3.75382,3.91697 3.75382,3.5977 3.75382,3.29117 3.75382,2.99876 3.80454,2.75652 3.85527,2.51987 3.95673,2.31865 4.00746,2.09196 4.15963,1.9201 4.31182,1.74368 4.51473,1.5826 4.71763,1.41629 5.02201,1.27255 5.37708,1.12925 5.78291,0.98515 6.39164,0.85887 7.10182,0.72568 8.11636,0.60085 9.58746,0.47937 4.66691,0.1665 v 0"
           style="fill:none;stroke:#ff7f0e;stroke-width:1.5;stroke-linecap:square"
           id="path225" />
      </g>
      <g
         id="patch_3">
        <path
           d="M 90,315 V 43.2"
           style="fill:none;stroke:#000000;stroke-width:0.8;stroke-linecap:square;stroke-linejoin:miter"
           id="path228" />
      </g>
      <g
         id="patch_4">
        <path
           d="M 648,315 V 43.2"
           style="fill:none;stroke:#000000;stroke-width:0.8;stroke-linecap:square;stroke-linejoin:miter"
           id="path231" />
      </g>
      <g
         id="patch_5">
        <path
           d="M 90,315 H 648"
           style="fill:none;stroke:#000000;stroke-width:0.8;stroke-linecap:square;stroke-linejoin:miter"
           id="path234" />
      </g>
      <g
         id="patch_6">
        <path
           d="M 90,43.2 H 648"
           style="fill:none;stroke:#000000;stroke-width:0.8;stroke-linecap:square;stroke-linejoin:miter"
           id="path237" />
      </g>
      <g
         id="legend_1">
        <g
           id="patch_7">
          <path
             d="m 97,80.55625 h 188.41562 q 2,0 2,-2 V 50.2 q 0,-2 -2,-2 H 97 q -2,0 -2,2 v 28.35625 q 0,2 2,2 z"
             style="opacity:0.8;fill:#ffffff;stroke:#cccccc;stroke-linejoin:miter"
             id="path240" />
        </g>
        <g
           id="line2d_15">
          <path
             d="m 99,56.298437 h 20"
             style="fill:none;stroke:#1f77b4;stroke-width:1.5;stroke-linecap:square"
             id="path243" />
        </g>
        <g
           id="line2d_16" />
        <g
           id="text_13">
          <!-- Prawdziwy rozkład -->
          <g
             transform="matrix(0.1,0,0,-0.1,127,59.798437)"
             id="g295">
            <defs
               id="defs259">
              <path
                 d="M 19.671875,64.796875 V 37.40625 h 12.40625 q 6.890625,0 10.640625,3.5625 3.765625,3.5625 3.765625,10.15625 0,6.546875 -3.765625,10.109375 -3.75,3.5625 -10.640625,3.5625 z M 9.8125,72.90625 h 22.265625 q 12.265625,0 18.53125,-5.546875 6.28125,-5.546875 6.28125,-16.234375 0,-10.796875 -6.28125,-16.3125 -6.265625,-5.515625 -18.53125,-5.515625 H 19.671875 V 0 H 9.8125 Z"
                 id="DejaVuSans-80" />
              <path
                 d="m 41.109375,46.296875 q -1.515625,0.875 -3.296875,1.28125 Q 36.03125,48 33.890625,48 26.265625,48 22.1875,43.046875 18.109375,38.09375 18.109375,28.8125 V 0 h -9.03125 v 54.6875 h 9.03125 v -8.5 q 2.84375,4.984375 7.375,7.390625 Q 30.03125,56 36.53125,56 q 0.921875,0 2.046875,-0.125 1.125,-0.109375 2.484375,-0.359375 z"
                 id="DejaVuSans-114" />
              <path
                 d="m 34.28125,27.484375 q -10.890625,0 -15.09375,-2.484375 -4.203125,-2.484375 -4.203125,-8.5 0,-4.78125 3.15625,-7.59375 3.15625,-2.796875 8.5625,-2.796875 7.484375,0 12,5.296875 4.515625,5.296875 4.515625,14.078125 v 2 z m 17.921875,3.71875 V 0 H 43.21875 v 8.296875 q -3.078125,-4.96875 -7.671875,-7.34375 -4.59375,-2.375 -11.234375,-2.375 -8.390625,0 -13.359375,4.71875 Q 6,8.015625 6,15.921875 q 0,9.21875 6.171875,13.90625 6.1875,4.6875 18.4375,4.6875 H 43.21875 v 0.890625 q 0,6.203125 -4.078125,9.59375 -4.078125,3.390625 -11.453125,3.390625 -4.6875,0 -9.140625,-1.125 -4.4375,-1.125 -8.53125,-3.375 v 8.3125 q 4.921875,1.90625 9.5625,2.84375 Q 24.21875,56 28.609375,56 q 11.875,0 17.734375,-6.15625 5.859375,-6.140625 5.859375,-18.640625 z"
                 id="DejaVuSans-97" />
              <path
                 d="M 4.203125,54.6875 H 13.1875 L 24.421875,12.015625 35.59375,54.6875 H 46.1875 L 57.421875,12.015625 68.609375,54.6875 H 77.59375 L 63.28125,0 H 52.6875 L 40.921875,44.828125 29.109375,0 H 18.5 Z"
                 id="DejaVuSans-119" />
              <path
                 d="m 45.40625,46.390625 v 29.59375 h 8.984375 V 0 H 45.40625 v 8.203125 q -2.828125,-4.875 -7.15625,-7.25 -4.3125,-2.375 -10.375,-2.375 -9.90625,0 -16.140625,7.90625 -6.21875,7.921875 -6.21875,20.8125 0,12.890625 6.21875,20.796875 Q 17.96875,56 27.875,56 q 6.0625,0 10.375,-2.375 4.328125,-2.359375 7.15625,-7.234375 z M 14.796875,27.296875 q 0,-9.90625 4.078125,-15.546875 4.078125,-5.640625 11.203125,-5.640625 7.125,0 11.21875,5.640625 4.109375,5.640625 4.109375,15.546875 0,9.90625 -4.109375,15.546875 -4.09375,5.640625 -11.21875,5.640625 -7.125,0 -11.203125,-5.640625 -4.078125,-5.640625 -4.078125,-15.546875 z"
                 id="DejaVuSans-100" />
              <path
                 d="M 5.515625,54.6875 H 48.1875 V 46.484375 L 14.40625,7.171875 H 48.1875 V 0 H 4.296875 v 8.203125 l 33.796875,39.3125 H 5.515625 Z"
                 id="DejaVuSans-122" />
              <path
                 d="M 9.421875,54.6875 H 18.40625 V 0 H 9.421875 Z m 0,21.296875 H 18.40625 V 64.59375 H 9.421875 Z"
                 id="DejaVuSans-105" />
              <path
                 d="M 32.171875,-5.078125 Q 28.375,-14.84375 24.75,-17.8125 q -3.609375,-2.984375 -9.65625,-2.984375 h -7.1875 v 7.515625 h 5.28125 q 3.703125,0 5.75,1.765625 2.0625,1.75 4.546875,8.296875 L 25.09375,0.875 2.984375,54.6875 H 12.5 L 29.59375,11.921875 46.6875,54.6875 h 9.515625 z"
                 id="DejaVuSans-121" />
              <path
                 id="DejaVuSans-32"
                 d="" />
              <path
                 d="m 30.609375,48.390625 q -7.21875,0 -11.421875,-5.640625 -4.203125,-5.640625 -4.203125,-15.453125 0,-9.8125 4.171875,-15.453125 4.1875,-5.640625 11.453125,-5.640625 7.1875,0 11.375,5.65625 4.203125,5.671875 4.203125,15.4375 0,9.71875 -4.203125,15.40625 -4.1875,5.6875 -11.375,5.6875 z m 0,7.609375 q 11.71875,0 18.40625,-7.625 6.703125,-7.609375 6.703125,-21.078125 0,-13.421875 -6.703125,-21.078125 -6.6875,-7.640625 -18.40625,-7.640625 -11.765625,0 -18.4375,7.640625 -6.65625,7.65625 -6.65625,21.078125 0,13.46875 6.65625,21.078125 Q 18.84375,56 30.609375,56 Z"
                 id="DejaVuSans-111" />
              <path
                 d="m 9.078125,75.984375 h 9.03125 v -44.875 l 26.8125,23.578125 h 11.46875 l -29,-25.578125 L 57.625,0 H 45.90625 L 18.109375,26.703125 V 0 h -9.03125 z"
                 id="DejaVuSans-107" />
              <path
                 d="m 9.71875,75.984375 h 8.984375 v -29.40625 l 6.109375,4.40625 3.703125,-5.1875 -9.8125,-6.875 V 0 H 9.71875 v 32.515625 l -6,-4.296875 -3.625,5.1875 9.625,6.875 z"
                 id="DejaVuSans-322" />
            </defs>
            <use
               xlink:href="#DejaVuSans-80"
               id="use261"
               x="0"
               y="0"
               width="100%"
               height="100%" />
            <use
               x="58.552734"
               xlink:href="#DejaVuSans-114"
               id="use263"
               y="0"
               width="100%"
               height="100%" />
            <use
               x="99.666016"
               xlink:href="#DejaVuSans-97"
               id="use265"
               y="0"
               width="100%"
               height="100%" />
            <use
               x="160.94531"
               xlink:href="#DejaVuSans-119"
               id="use267"
               y="0"
               width="100%"
               height="100%" />
            <use
               x="242.73242"
               xlink:href="#DejaVuSans-100"
               id="use269"
               y="0"
               width="100%"
               height="100%" />
            <use
               x="306.20898"
               xlink:href="#DejaVuSans-122"
               id="use271"
               y="0"
               width="100%"
               height="100%" />
            <use
               x="358.69922"
               xlink:href="#DejaVuSans-105"
               id="use273"
               y="0"
               width="100%"
               height="100%" />
            <use
               x="386.48242"
               xlink:href="#DejaVuSans-119"
               id="use275"
               y="0"
               width="100%"
               height="100%" />
            <use
               x="468.26953"
               xlink:href="#DejaVuSans-121"
               id="use277"
               y="0"
               width="100%"
               height="100%" />
            <use
               x="527.44922"
               xlink:href="#DejaVuSans-32"
               id="use279"
               y="0"
               width="100%"
               height="100%" />
            <use
               x="559.23633"
               xlink:href="#DejaVuSans-114"
               id="use281"
               y="0"
               width="100%"
               height="100%" />
            <use
               x="598.09961"
               xlink:href="#DejaVuSans-111"
               id="use283"
               y="0"
               width="100%"
               height="100%" />
            <use
               x="659.28125"
               xlink:href="#DejaVuSans-122"
               id="use285"
               y="0"
               width="100%"
               height="100%" />
            <use
               x="711.77148"
               xlink:href="#DejaVuSans-107"
               id="use287"
               y="0"
               width="100%"
               height="100%" />
            <use
               x="769.68164"
               xlink:href="#DejaVuSans-322"
               id="use289"
               y="0"
               width="100%"
               height="100%" />
            <use
               x="798.09961"
               xlink:href="#DejaVuSans-97"
               id="use291"
               y="0"
               width="100%"
               height="100%" />
            <use
               x="859.37891"
               xlink:href="#DejaVuSans-100"
               id="use293"
               y="0"
               width="100%"
               height="100%" />
          </g>
        </g>
        <g
           id="line2d_17">
          <path
             d="m 99,70.976562 h 20"
             style="fill:none;stroke:#ff7f0e;stroke-width:1.5;stroke-linecap:square"
             id="path298" />
        </g>
        <g
           id="line2d_18" />
        <g
           id="text_14">
          <!-- Przybliżony rozkład normalnym -->
          <g
             transform="matrix(0.1,0,0,-0.1,127,74.476562)"
             id="g367">
            <defs
               id="defs307">
              <path
                 d="m 48.6875,27.296875 q 0,9.90625 -4.078125,15.546875 -4.078125,5.640625 -11.203125,5.640625 -7.140625,0 -11.21875,-5.640625 -4.078125,-5.640625 -4.078125,-15.546875 0,-9.90625 4.078125,-15.546875 4.078125,-5.640625 11.21875,-5.640625 7.125,0 11.203125,5.640625 4.078125,5.640625 4.078125,15.546875 z m -30.578125,19.09375 q 2.84375,4.875 7.15625,7.234375 Q 29.59375,56 35.59375,56 q 9.96875,0 16.1875,-7.90625 6.234375,-7.90625 6.234375,-20.796875 0,-12.890625 -6.234375,-20.8125 -6.21875,-7.90625 -16.1875,-7.90625 -6,0 -10.328125,2.375 -4.3125,2.375 -7.15625,7.25 V 0 h -9.03125 v 75.984375 h 9.03125 z"
                 id="DejaVuSans-98" />
              <path
                 d="M 9.421875,75.984375 H 18.40625 V 0 H 9.421875 Z"
                 id="DejaVuSans-108" />
              <path
                 d="m 21.53125,75.984375 h 8.984375 V 64.59375 H 21.53125 Z M 26.125,56 Z M 5.515625,54.6875 H 48.1875 V 46.484375 L 14.40625,7.171875 H 48.1875 V 0 H 4.296875 v 8.203125 l 33.796875,39.3125 H 5.515625 Z"
                 id="DejaVuSans-380" />
              <path
                 d="M 54.890625,33.015625 V 0 H 45.90625 v 32.71875 q 0,7.765625 -3.03125,11.609375 -3.03125,3.859375 -9.078125,3.859375 -7.28125,0 -11.484375,-4.640625 -4.203125,-4.625 -4.203125,-12.640625 V 0 h -9.03125 v 54.6875 h 9.03125 v -8.5 q 3.234375,4.9375 7.59375,7.375 4.375,2.4375 10.09375,2.4375 9.421875,0 14.25,-5.828125 4.84375,-5.828125 4.84375,-17.15625 z"
                 id="DejaVuSans-110" />
              <path
                 d="M 52,44.1875 Q 55.375,50.25 60.0625,53.125 64.75,56 71.09375,56 q 8.546875,0 13.1875,-5.984375 4.640625,-5.96875 4.640625,-17 V 0 h -9.03125 v 32.71875 q 0,7.859375 -2.796875,11.65625 -2.78125,3.8125 -8.484375,3.8125 -6.984375,0 -11.046875,-4.640625 -4.046875,-4.625 -4.046875,-12.640625 V 0 h -9.03125 v 32.71875 q 0,7.90625 -2.78125,11.6875 -2.78125,3.78125 -8.59375,3.78125 -6.890625,0 -10.953125,-4.65625 -4.046875,-4.65625 -4.046875,-12.625 V 0 h -9.03125 v 54.6875 h 9.03125 v -8.5 q 3.078125,5.03125 7.375,7.421875 Q 29.78125,56 35.6875,56 41.65625,56 45.828125,52.96875 50,49.953125 52,44.1875 Z"
                 id="DejaVuSans-109" />
            </defs>
            <use
               xlink:href="#DejaVuSans-80"
               id="use309"
               x="0"
               y="0"
               width="100%"
               height="100%" />
            <use
               x="58.552734"
               xlink:href="#DejaVuSans-114"
               id="use311"
               y="0"
               width="100%"
               height="100%" />
            <use
               x="99.666016"
               xlink:href="#DejaVuSans-122"
               id="use313"
               y="0"
               width="100%"
               height="100%" />
            <use
               x="152.15625"
               xlink:href="#DejaVuSans-121"
               id="use315"
               y="0"
               width="100%"
               height="100%" />
            <use
               x="211.33594"
               xlink:href="#DejaVuSans-98"
               id="use317"
               y="0"
               width="100%"
               height="100%" />
            <use
               x="274.8125"
               xlink:href="#DejaVuSans-108"
               id="use319"
               y="0"
               width="100%"
               height="100%" />
            <use
               x="302.5957"
               xlink:href="#DejaVuSans-105"
               id="use321"
               y="0"
               width="100%"
               height="100%" />
            <use
               x="330.37891"
               xlink:href="#DejaVuSans-380"
               id="use323"
               y="0"
               width="100%"
               height="100%" />
            <use
               x="382.86914"
               xlink:href="#DejaVuSans-111"
               id="use325"
               y="0"
               width="100%"
               height="100%" />
            <use
               x="444.05078"
               xlink:href="#DejaVuSans-110"
               id="use327"
               y="0"
               width="100%"
               height="100%" />
            <use
               x="507.42969"
               xlink:href="#DejaVuSans-121"
               id="use329"
               y="0"
               width="100%"
               height="100%" />
            <use
               x="566.60938"
               xlink:href="#DejaVuSans-32"
               id="use331"
               y="0"
               width="100%"
               height="100%" />
            <use
               x="598.39648"
               xlink:href="#DejaVuSans-114"
               id="use333"
               y="0"
               width="100%"
               height="100%" />
            <use
               x="637.25977"
               xlink:href="#DejaVuSans-111"
               id="use335"
               y="0"
               width="100%"
               height="100%" />
            <use
               x="698.44141"
               xlink:href="#DejaVuSans-122"
               id="use337"
               y="0"
               width="100%"
               height="100%" />
            <use
               x="750.93164"
               xlink:href="#DejaVuSans-107"
               id="use339"
               y="0"
               width="100%"
               height="100%" />
            <use
               x="808.8418"
               xlink:href="#DejaVuSans-322"
               id="use341"
               y="0"
               width="100%"
               height="100%" />
            <use
               x="837.25977"
               xlink:href="#DejaVuSans-97"
               id="use343"
               y="0"
               width="100%"
               height="100%" />
            <use
               x="898.53906"
               xlink:href="#DejaVuSans-100"
               id="use345"
               y="0"
               width="100%"
               height="100%" />
            <use
               x="962.01562"
               xlink:href="#DejaVuSans-32"
               id="use347"
               y="0"
               width="100%"
               height="100%" />
            <use
               x="993.80273"
               xlink:href="#DejaVuSans-110"
               id="use349"
               y="0"
               width="100%"
               height="100%" />
            <use
               x="1057.1816"
               xlink:href="#DejaVuSans-111"
               id="use351"
               y="0"
               width="100%"
               height="100%" />
            <use
               x="1118.3633"
               xlink:href="#DejaVuSans-114"
               id="use353"
               y="0"
               width="100%"
               height="100%" />
            <use
               x="1157.7266"
               xlink:href="#DejaVuSans-109"
               id="use355"
               y="0"
               width="100%"
               height="100%" />
            <use
               x="1255.1387"
               xlink:href="#DejaVuSans-97"
               id="use357"
               y="0"
               width="100%"
               height="100%" />
            <use
               x="1316.418"
               xlink:href="#DejaVuSans-108"
               id="use359"
               y="0"
               width="100%"
               height="100%" />
            <use
               x="1344.2012"
               xlink:href="#DejaVuSans-110"
               id="use361"
               y="0"
               width="100%"
               height="100%" />
            <use
               x="1407.5801"
               xlink:href="#DejaVuSans-121"
               id="use363"
               y="0"
               width="100%"
               height="100%" />
          </g>
        </g>
      </g>
    </g>
  </g>
  <defs
     id="defs376">
    <clipPath
       id="pc693c5965e">
      <rect
         height="271.79999"
         width="558"
         x="90"
         y="43.200001"
         id="rect373" />
    </clipPath>
  </defs>
</svg>
