<?xml version="1.0" encoding="UTF-8" standalone="no"?>
<svg
   xmlns:dc="http://purl.org/dc/elements/1.1/"
   xmlns:cc="http://creativecommons.org/ns#"
   xmlns:rdf="http://www.w3.org/1999/02/22-rdf-syntax-ns#"
   xmlns:svg="http://www.w3.org/2000/svg"
   xmlns="http://www.w3.org/2000/svg"
   viewBox="0 0 711.33331 249.10667"
   height="249.10667"
   width="711.33331"
   xml:space="preserve"
   id="svg2"
   version="1.1"><metadata
     id="metadata8"><rdf:RDF><cc:Work
         rdf:about=""><dc:format>image/svg+xml</dc:format><dc:type
           rdf:resource="http://purl.org/dc/dcmitype/StillImage" /></cc:Work></rdf:RDF></metadata><defs
     id="defs6" /><g
     transform="matrix(1.3333333,0,0,-1.3333333,0,249.10667)"
     id="g10"><g
       transform="scale(0.1)"
       id="g12"><path
         id="path14"
         style="fill:#585f63;fill-opacity:1;fill-rule:nonzero;stroke:none"
         d="m 2485.2,390.43 c 23.06,0 37.7,12.769 37.7,38.781 v 48.519 h -18.96 V 428.5 c 0,-13.641 -6.97,-20.641 -18.51,-20.641 -11.57,0 -18.52,7.211 -18.52,21.219 v 48.652 h -18.96 v -49.121 c 0,-25.3 14.14,-38.179 37.25,-38.179" /><path
         id="path16"
         style="fill:#585f63;fill-opacity:1;fill-rule:nonzero;stroke:none"
         d="m 2560.79,446.422 41.6,-54.641 h 16.11 v 85.938 h -18.71 v -52.918 l -40.25,52.918 h -17.47 v -85.938 h 18.72 v 54.641" /><path
         id="path18"
         style="fill:#585f63;fill-opacity:1;fill-rule:nonzero;stroke:none"
         d="m 2639.87,391.77 h 18.9102 v 85.9492 H 2639.87 Z" /><path
         id="path20"
         style="fill:#585f63;fill-opacity:1;fill-rule:nonzero;stroke:none"
         d="m 2766.48,419.512 -19.3,58.386 h -16.2 l -19.28,-58.386 -17.81,58.207 h -20.25 l 29.31,-86.571 h 16.48 l 19.4,56.204 19.41,-56.204 h 16.44 l 29.37,86.571 h -19.78 l -17.79,-58.207" /><path
         id="path22"
         style="fill:#585f63;fill-opacity:1;fill-rule:nonzero;stroke:none"
         d="m 2883.44,408.59 h -46.69 v 18.039 h 40.47 v 16.801 h -40.47 v 17.48 h 46.05 v 16.809 h -64.85 v -85.938 h 65.49 v 16.809" /><path
         id="path24"
         style="fill:#585f63;fill-opacity:1;fill-rule:nonzero;stroke:none"
         d="m 2952.73,448.352 v -0.223 c 0,-7.258 -5.29,-12.149 -14.46,-12.149 h -19.19 v 24.668 h 18.79 c 9.21,0 14.86,-4.148 14.86,-12.296 m -52.56,29.378 v -85.949 h 18.91 v 27.52 h 14.85 l 18.4,-27.52 h 22.13 l -20.99,30.699 c 10.92,4.04 18.42,12.739 18.42,26.641 v 0.207 c 0,17.723 -12.13,28.402 -32.46,28.402 h -39.26" /><path
         id="path26"
         style="fill:#585f63;fill-opacity:1;fill-rule:nonzero;stroke:none"
         d="m 3051.02,417.449 c 0,14.992 -9.81,21.199 -27.26,25.75 -14.86,3.813 -18.53,5.653 -18.53,11.321 v 0.218 c 0,4.211 3.76,7.543 11.05,7.543 7.22,0 14.72,-3.222 22.31,-8.511 l 9.86,14.3 c -8.7,6.95 -19.4,10.871 -31.93,10.871 -17.58,0 -30.11,-10.281 -30.11,-25.91 v -0.211 c 0,-17.101 11.2,-21.922 28.52,-26.3 14.35,-3.7 17.34,-6.129 17.34,-10.961 v -0.2 c 0,-5.019 -4.68,-8.129 -12.42,-8.129 -9.84,0 -17.95,4.032 -25.67,10.418 l -11.19,-13.367 c 10.33,-9.23 23.48,-13.722 36.49,-13.722 18.53,0 31.54,9.543 31.54,26.621 v 0.269" /><path
         id="path28"
         style="fill:#585f63;fill-opacity:1;fill-rule:nonzero;stroke:none"
         d="m 3087.92,391.781 h 18.93 v 34.258 l 33.05,51.68 h -21.5 l -20.88,-34.52 -20.51,34.52 h -22.08 l 32.99,-52.098 v -33.84" /><path
         id="path30"
         style="fill:#585f63;fill-opacity:1;fill-rule:nonzero;stroke:none"
         d="m 3190.55,391.781 v 68.52 h 26.12 v 17.418 h -71.2 v -17.418 h 26.18 v -68.52 h 18.9" /><path
         id="path32"
         style="fill:#585f63;fill-opacity:1;fill-rule:nonzero;stroke:none"
         d="m 3249.9,426.629 h 40.55 v 16.801 h -40.55 v 17.48 h 46.05 v 16.809 h -64.82 v -85.938 h 65.46 v 16.809 h -46.69 v 18.039" /><path
         id="path34"
         style="fill:#585f63;fill-opacity:1;fill-rule:nonzero;stroke:none"
         d="m 3307.21,460.301 h 26.17 v -68.52 h 18.91 v 68.52 h 26.14 v 17.418 h -71.22 v -17.418" /><path
         id="path36"
         style="fill:#585f63;fill-opacity:1;fill-rule:nonzero;stroke:none"
         d="m 3493.25,441.371 -22.55,36.348 h -20.38 v -86 h 18.49 V 447.5 l 23.99,-36.34 h 0.45 l 24.22,36.668 v -56.109 h 18.78 v 86 h -20.38 l -22.62,-36.348" /><path
         id="path38"
         style="fill:#585f63;fill-opacity:1;fill-rule:nonzero;stroke:none"
         d="m 3583.36,427.73 11.43,27.891 11.42,-27.891 z m 2.97,50.61 -36.85,-86.621 h 19.24 l 7.88,19.301 h 36.35 l 7.86,-19.301 h 19.74 l -36.82,86.621 h -17.4" /><path
         id="path40"
         style="fill:#585f63;fill-opacity:1;fill-rule:nonzero;stroke:none"
         d="m 3706.32,448.121 c 0,-7.25 -5.31,-12.172 -14.49,-12.172 h -19.13 v 24.699 h 18.77 c 9.23,0 14.85,-4.207 14.85,-12.328 z m 19.14,0.949 v 0.231 c 0,17.75 -12.13,28.418 -32.41,28.418 h -39.31 v -86 h 18.96 v 27.519 h 14.85 l 18.37,-27.519 h 22.13 l -20.98,30.73 c 10.88,4.039 18.39,12.762 18.39,26.621" /><path
         id="path42"
         style="fill:#585f63;fill-opacity:1;fill-rule:nonzero;stroke:none"
         d="m 3743.33,391.719 h 18.8984 v 86.0117 H 3743.33 Z" /><path
         id="path44"
         style="fill:#585f63;fill-opacity:1;fill-rule:nonzero;stroke:none"
         d="m 3784.6,391.719 h 18.8672 v 86.0117 H 3784.6 Z" /><path
         id="path46"
         style="fill:#585f63;fill-opacity:1;fill-rule:nonzero;stroke:none"
         d="m 3902.69,407.691 c -14.8,0 -24.98,12.289 -24.98,27.02 v 0.238 c 0,14.781 10.44,26.781 24.98,26.781 8.54,0 15.3,-3.699 21.97,-9.671 l 12,13.839 c -8,7.883 -17.68,13.25 -33.86,13.25 -26.41,0 -44.87,-19.988 -44.87,-44.437 v -0.231 c 0,-24.671 18.8,-44.21 44.1,-44.21 16.55,0 26.41,5.902 35.27,15.332 l -12.06,12.187 c -6.74,-6.141 -12.76,-10.098 -22.55,-10.098" /><path
         id="path48"
         style="fill:#585f63;fill-opacity:1;fill-rule:nonzero;stroke:none"
         d="m 4006.98,428.469 c 0,-13.61 -7.03,-20.641 -18.55,-20.641 -11.53,0 -18.56,7.242 -18.56,21.25 v 48.641 h -18.91 v -49.11 c 0,-25.3 14.13,-38.179 37.2,-38.179 23.1,0 37.69,12.718 37.69,38.718 v 48.571 h -18.87 v -49.25" /><path
         id="path50"
         style="fill:#585f63;fill-opacity:1;fill-rule:nonzero;stroke:none"
         d="m 4097.68,448.121 c 0,-7.25 -5.31,-12.172 -14.51,-12.172 h -19.16 v 24.699 h 18.77 c 9.22,0 14.9,-4.207 14.9,-12.328 z m 19.14,0.949 v 0.231 c 0,17.75 -12.19,28.418 -32.43,28.418 h -39.26 v -86 h 18.88 v 27.519 h 14.82 l 18.51,-27.519 h 22.08 l -21,30.73 c 10.92,4.039 18.4,12.762 18.4,26.621" /><path
         id="path52"
         style="fill:#585f63;fill-opacity:1;fill-rule:nonzero;stroke:none"
         d="m 4134.69,391.719 h 18.9102 v 86.0117 H 4134.69 Z" /><path
         id="path54"
         style="fill:#585f63;fill-opacity:1;fill-rule:nonzero;stroke:none"
         d="m 4193.83,426.629 h 40.53 v 16.801 h -40.53 v 17.449 h 46.06 v 16.84 h -64.83 v -86 h 65.46 v 16.851 h -46.69 v 18.059" /><path
         id="path56"
         style="fill:#585f63;fill-opacity:1;fill-rule:nonzero;stroke:none"
         d="m 4253.11,420.828 h 37.8203 v 17.9531 H 4253.11 Z" /><path
         id="path58"
         style="fill:#585f63;fill-opacity:1;fill-rule:nonzero;stroke:none"
         d="m 4342.19,443.168 c -14.82,3.844 -18.52,5.684 -18.52,11.32 v 0.262 c 0,4.199 3.8,7.43 11.07,7.43 7.25,0 14.73,-3.141 22.36,-8.442 l 9.82,14.25 c -8.78,7.032 -19.42,10.922 -31.96,10.922 -17.53,0 -30.04,-10.25 -30.04,-25.879 v -0.293 c 0,-17.019 11.13,-21.84 28.44,-26.25 14.42,-3.699 17.32,-6.16 17.32,-10.918 v -0.23 c 0,-5.031 -4.7,-8.149 -12.39,-8.149 -9.84,0 -17.93,4.039 -25.68,10.469 l -11.15,-13.379 c 10.3,-9.23 23.42,-13.801 36.46,-13.801 18.53,0 31.57,9.649 31.57,26.68 v 0.238 c 0,15.024 -9.85,21.231 -27.3,25.77" /><path
         id="path60"
         style="fill:#585f63;fill-opacity:1;fill-rule:nonzero;stroke:none"
         d="m 4462.49,477.719 h -22.85 l -34.84,-37.617 v 37.617 h -18.91 v -86 h 18.91 v 26.312 l 9.94,10.309 26.64,-36.621 h 22.74 l -36.64,49.519 35.01,36.481" /><path
         id="path62"
         style="fill:#585f63;fill-opacity:1;fill-rule:nonzero;stroke:none"
         d="m 4497.8,429.578 23.61,6.961 v 17.582 l -23.61,-6.992 v 30.59 h -18.63 v -36.27 l -9.23,-2.668 v -17.633 l 9.23,2.75 v -32.179 h 61.75 v 17.222 h -43.12 v 20.637" /><path
         id="path64"
         style="fill:#585f63;fill-opacity:1;fill-rule:nonzero;stroke:none"
         d="m 4622.88,434.48 c 0,-14.699 -10.56,-26.789 -25.81,-26.789 -15.17,0 -25.99,12.289 -25.99,27.02 v 0.238 c 0,14.781 10.55,26.781 25.76,26.781 15.24,0 26.04,-12.261 26.04,-27.019 z m -25.81,44.668 c -26.51,0 -45.79,-19.988 -45.79,-44.437 v -0.231 c 0,-24.441 19.06,-44.21 45.56,-44.21 26.5,0 45.81,20.039 45.81,44.441 v 0.238 c 0,24.43 -19.01,44.199 -45.58,44.199" /><path
         id="path66"
         style="fill:#585f63;fill-opacity:1;fill-rule:nonzero;stroke:none"
         d="m 4718.81,434.48 c 0,-15.242 -10.42,-25.652 -25.81,-25.652 h -14.69 v 51.82 H 4693 c 15.39,0 25.81,-10.679 25.81,-25.937 z M 4693,477.719 h -33.57 v -86 H 4693 c 26.98,0 45.64,18.851 45.64,42.992 v 0.238 c 0,24.211 -18.66,42.77 -45.64,42.77" /><path
         id="path68"
         style="fill:#585f63;fill-opacity:1;fill-rule:nonzero;stroke:none"
         d="m 4823.18,434.48 c 0,-14.699 -10.58,-26.789 -25.8,-26.789 -15.24,0 -26.02,12.289 -26.02,27.02 v 0.238 c 0,14.781 10.53,26.781 25.72,26.781 15.23,0 26.1,-12.261 26.1,-27.019 z m -25.8,44.668 c -26.52,0 -45.81,-19.988 -45.81,-44.437 v -0.231 c 0,-24.441 19.05,-44.21 45.51,-44.21 26.58,0 45.82,20.039 45.82,44.441 v 0.238 c 0,24.43 -19.01,44.199 -45.52,44.199" /><path
         id="path70"
         style="fill:#585f63;fill-opacity:1;fill-rule:nonzero;stroke:none"
         d="m 4940.95,419.512 -19.25,58.386 h -16.23 l -19.24,-58.386 -17.82,58.207 h -20.25 l 29.32,-86.598 h 16.47 l 19.4,56.231 19.44,-56.231 h 16.41 l 29.34,86.598 h -19.75 l -17.84,-58.207" /><path
         id="path72"
         style="fill:#585f63;fill-opacity:1;fill-rule:nonzero;stroke:none"
         d="m 5024.89,443.168 c -14.84,3.844 -18.55,5.684 -18.55,11.32 v 0.262 c 0,4.199 3.82,7.43 11.07,7.43 7.24,0 14.72,-3.141 22.34,-8.442 l 9.81,14.25 c -8.71,7.032 -19.45,10.922 -31.89,10.922 -17.58,0 -30.11,-10.25 -30.11,-25.879 v -0.293 c 0,-17.019 11.13,-21.84 28.5,-26.25 14.33,-3.699 17.28,-6.16 17.28,-10.918 v -0.23 c 0,-5.031 -4.7,-8.149 -12.39,-8.149 -9.83,0 -17.94,4.039 -25.67,10.469 l -11.13,-13.379 c 10.26,-9.23 23.44,-13.801 36.43,-13.801 18.53,0 31.56,9.649 31.56,26.68 v 0.238 c 0,15.024 -9.83,21.231 -27.25,25.77" /><path
         id="path74"
         style="fill:#585f63;fill-opacity:1;fill-rule:nonzero;stroke:none"
         d="m 5145.15,477.719 h -22.82 l -34.86,-37.617 v 37.617 h -18.88 v -86 h 18.88 v 26.312 l 9.94,10.309 26.64,-36.621 h 22.73 l -36.64,49.519 35.01,36.481" /><path
         id="path76"
         style="fill:#585f63;fill-opacity:1;fill-rule:nonzero;stroke:none"
         d="m 5158.97,391.719 h 18.9531 v 86.0117 H 5158.97 Z" /><path
         id="path78"
         style="fill:#585f63;fill-opacity:1;fill-rule:nonzero;stroke:none"
         d="m 5218.14,426.629 h 40.56 v 16.801 h -40.56 v 17.449 h 46.07 v 16.84 h -64.81 v -86 h 65.4 v 16.851 h -46.66 v 18.059" /><path
         id="path80"
         style="fill:#585f63;fill-opacity:1;fill-rule:nonzero;stroke:none"
         d="m 5312.14,422.309 c 0,-9.911 -4.37,-14.25 -11.55,-14.25 -5.98,0 -10.78,3.171 -15.67,8.652 l -11.93,-13.301 c 5.9,-7.012 14.73,-12.93 28.12,-12.93 18.17,0 30.44,10.098 30.44,30.989 v 56.25 h -19.41 v -55.41" /><path
         id="path82"
         style="fill:#585f63;fill-opacity:1;fill-rule:nonzero;stroke:none"
         d="m 2126.54,391.148 h 19.4805 v 1074.61 H 2126.54 Z" /><path
         id="path84"
         style="fill:#585f63;fill-opacity:1;fill-rule:nonzero;stroke:none"
         d="m 3234.27,1375.66 -30.45,-725.808 h 177.49 l 12.34,453.358 142.23,-347.851 h 164.05 l 141.93,347.851 12.45,-453.358 h 177.39 l -34.2,815.908 h -261.67 v -62.32 l 43.82,-27.89 -161.91,-429.277 -195.96,519.487 h -231.36 v -62.32 l 43.85,-27.89 v 0.11" /><path
         id="path86"
         style="fill:#585f63;fill-opacity:1;fill-rule:nonzero;stroke:none"
         d="m 4438.16,637.77 c 76.84,0 155.6,8.46 236.5,25.718 l -25.7,160.364 c -75.95,-13.032 -146.05,-19.59 -210.8,-19.59 -43.19,0 -73.17,9.226 -89.31,27.629 -16.4,18.3 -24.5,46.718 -24.5,85.097 V 1198.7 c 0,38.28 8.1,66.8 24.5,85.17 16.14,18.25 46.12,27.44 89.31,27.44 64.75,0 134.85,-6.47 210.8,-19.45 l 25.7,160.35 c -80.9,17.17 -159.66,25.84 -236.5,25.84 -99.45,0 -174.08,-22.36 -223.5,-66.99 -49.4,-44.36 -74.12,-105.4 -74.12,-182.89 V 887.621 c 0,-77.562 24.72,-138.691 74.12,-183.281 49.42,-44.34 124.05,-66.57 223.5,-66.57" /><path
         id="path88"
         style="fill:#585f63;fill-opacity:1;fill-rule:nonzero;stroke:none"
         d="m 5333,950.668 c -1.07,16.711 -4.2,34.723 -9.23,53.962 -4.8,19.09 -12,33.63 -21.27,43.38 -9.58,9.78 -23.3,20.51 -41.11,31.83 -18.08,11.5 -39.31,21.2 -64.34,29.55 -24.97,7.99 -56.26,16.6 -93.75,25.7 -64.46,15.44 -102.71,27.89 -114.45,37.3 -11.74,9.36 -17.89,33.68 -17.89,72.86 0,30.17 6.68,50.23 19.61,60.04 13.24,9.73 40.11,14.65 80.9,14.65 60.5,0 136.09,-7.78 226.77,-23.22 l 18.41,154.34 c -83.41,17.92 -165.87,26.99 -247.48,26.99 -109.48,0 -183.81,-17.13 -223.21,-51.02 -38.9,-33.92 -58.55,-92.77 -58.55,-177.02 0,-88.9 13.14,-148.97 39.66,-179.96 26.54,-31.03 88.79,-57.09 186.82,-78.343 35.97,-8.32 62.18,-14.551 78.6,-19.016 16.23,-4.55 29.42,-11.441 39.59,-20.859 10.13,-9.387 15.95,-18.379 17.27,-26.855 1.19,-8.594 1.61,-23.555 1.61,-44.786 0,-35.062 -6.97,-58.32 -21.28,-69.8 -14.38,-11.442 -44.75,-17.2 -91.29,-17.2 -72.58,0 -150.91,13.188 -235.14,39.297 l -30.65,-142.16 c 76.87,-35.058 164.6,-52.558 263.44,-52.558 79.77,0 142.21,9.359 186.88,28.121 44.34,18.668 74.14,44.679 89.25,77.859 15.29,32.941 22.8,78.121 22.8,135.277 0,30.989 -0.62,54.934 -1.97,71.641" /><path
         id="path90"
         style="fill:#585f63;fill-opacity:1;fill-rule:nonzero;stroke:none"
         d="m 2447.95,887.621 c 0,-70.211 24.77,-129.461 74.08,-177.633 49.41,-48.218 127.26,-72.218 233.38,-72.218 106.22,0 183.94,24 233.33,72.218 49.35,48.172 74.15,107.422 74.15,177.633 v 578.129 h -227.56 v -62.31 l 43.87,-27.89 V 904.703 c 0,-34.238 -9.64,-60.144 -28.91,-77.754 -19.11,-17.5 -50.84,-26.277 -94.88,-26.277 -44.1,0 -75.72,8.777 -94.79,26.277 -19.32,17.61 -28.96,43.516 -28.96,77.754 v 561.047 h -227.54 v -62.31 l 43.83,-27.89 V 887.621" /><path
         id="path92"
         style="fill:#585f63;fill-opacity:1;fill-rule:nonzero;stroke:none"
         d="m 984.059,79.8086 -4.008,7.4727 -35.543,-14.0196 -6.031,38.1483 -8.504,0.078 -5.852,-38.0192 -35.547,13.7695 -4.211,-7.25 29.52,-24.3594 L 884.297,31.5 888.574,24.2813 924.086,37.9609 929.949,0 l 8.434,0.078125 6.125,38.023475 35.398,-13.9024 4.215,7.2617 -29.746,24.3594 29.684,23.9883" /><path
         id="path94"
         style="fill:#585f63;fill-opacity:1;fill-rule:nonzero;stroke:none"
         d="m 884.363,1788.48 4.211,-7.4 35.512,13.75 5.863,-37.99 8.496,-0.04 6.063,38.03 35.433,-13.85 4.18,7.31 -29.746,24.24 29.766,24.29 -4.293,7.3 -35.489,-13.93 -5.914,38.12 -8.472,-0.11 -5.852,-37.88 -35.547,13.7 -4.398,-7.39 29.883,-24.1 -29.696,-24.05" /><path
         id="path96"
         style="fill:#585f63;fill-opacity:1;fill-rule:nonzero;stroke:none"
         d="m 1788.51,984.059 -7.48,-4.012 14.03,-35.539 -38.16,-6.028 -0.07,-8.515 38.01,-5.848 -13.77,-35.547 7.25,-4.211 24.37,29.524 24.13,-29.594 7.21,4.281 -13.67,35.516 37.96,5.859 -0.08,8.438 -38.02,6.125 13.89,35.398 -7.25,4.215 -24.36,-29.746 -23.99,29.684" /><path
         id="path98"
         style="fill:#585f63;fill-opacity:1;fill-rule:nonzero;stroke:none"
         d="m 79.8242,884.359 7.4024,4.211 -13.7461,35.516 37.9845,5.859 0.039,8.508 -38.0235,6.055 13.8437,35.43 -7.3047,4.183 -24.2382,-29.75 -24.2969,29.77 -7.293,-4.293 L 38.1211,944.359 0,938.453 0.109375,929.965 37.9922,924.117 24.2852,888.57 l 7.3984,-4.406 24.0977,29.895 24.0429,-29.7" /><path
         id="path100"
         style="fill:#585f63;fill-opacity:1;fill-rule:nonzero;stroke:none"
         d="m 1404.55,219.211 -7.22,4.48 -23.76,-29.929 -24.3,30.027 -7.4,-4.187 13.94,-35.84 -37.68,-5.852 -0.01,-8.371 37.74,-6.348 -13.56,-35.691 7.31,-4.109 23.93,29.589 24.05,-29.929 7.27,4.277 -13.71,35.981 37.6,5.679 0.03,8.403 -37.95,6.211 13.72,35.609" /><path
         id="path102"
         style="fill:#585f63;fill-opacity:1;fill-rule:nonzero;stroke:none"
         d="m 463.871,1649.13 7.344,-4.31 23.887,29.67 24.07,-29.97 7.375,4.21 -13.766,35.97 37.61,5.73 -0.032,8.41 -37.879,6.12 13.633,35.92 -7.363,4.17 -23.773,-29.81 -24.18,30.06 -7.289,-4.33 13.875,-35.74 -37.637,-5.89 -0.113,-8.62 37.93,-5.92 -13.692,-35.67" /><path
         id="path104"
         style="fill:#585f63;fill-opacity:1;fill-rule:nonzero;stroke:none"
         d="m 550.199,169.32 0.266,8.481 -37.793,5.609 13.851,36.07 -7.324,4.309 -24.07,-30 -23.902,29.711 -7.266,-4.18 13.375,-35.859 -37.688,-6.09 0.094,-8.391 37.598,-5.921 -13.902,-35.809 7.343,-4.141 24.313,29.852 23.711,-29.711 7.281,4.172 -13.586,35.957 37.699,5.941" /><path
         id="path106"
         style="fill:#585f63;fill-opacity:1;fill-rule:nonzero;stroke:none"
         d="m 1318.2,1698.93 -0.06,-8.52 37.64,-5.85 -13.92,-35.83 7.33,-4.29 24.27,29.91 23.76,-29.71 7.28,4.23 -13.65,35.87 37.93,6.15 -0.07,8.47 -37.7,5.68 13.94,35.97 -7.4,4.15 -24.01,-29.89 -23.93,29.64 -7.51,-4.2 13.84,-35.81 -37.74,-5.97" /><path
         id="path108"
         style="fill:#585f63;fill-opacity:1;fill-rule:nonzero;stroke:none"
         d="m 1698.99,550.191 -8.48,0.27 -5.61,-37.801 -36.07,13.86 -4.31,-7.329 30,-24.07 -29.71,-23.891 4.17,-7.269 35.87,13.367 6.1,-37.687 8.39,0.097 5.91,37.602 35.8,-13.899 4.16,7.34 -29.87,24.297 29.73,23.723 -4.17,7.277 -35.98,-13.59 -5.93,37.703" /><path
         id="path110"
         style="fill:#585f63;fill-opacity:1;fill-rule:nonzero;stroke:none"
         d="m 169.391,1318.2 8.507,-0.06 5.856,37.63 35.832,-13.91 4.281,7.34 -29.902,24.25 29.707,23.77 -4.234,7.28 -35.868,-13.65 -6.152,37.93 -8.469,-0.07 -5.679,-37.7 -35.969,13.94 -4.149,-7.4 29.891,-24.01 -29.648,-23.93 4.207,-7.51 35.816,13.84 5.973,-37.74" /><path
         id="path112"
         style="fill:#585f63;fill-opacity:1;fill-rule:nonzero;stroke:none"
         d="m 219.223,463.77 4.468,7.21 -29.921,23.758 30.031,24.313 -4.188,7.398 -35.847,-13.961 -5.844,37.684 -8.387,0.019 -6.344,-37.742 -35.687,13.563 -4.109,-7.313 29.597,-23.929 -29.941,-24.051 4.285,-7.258 35.988,13.699 5.664,-37.601 8.399,-0.02 6.218,37.941 35.618,-13.71" /><path
         id="path114"
         style="fill:#585f63;fill-opacity:1;fill-rule:nonzero;stroke:none"
         d="m 1649.14,1404.44 -4.31,-7.35 29.66,-23.88 -29.97,-24.07 4.22,-7.38 35.96,13.77 5.73,-37.61 8.41,0.03 6.12,37.89 35.92,-13.64 4.18,7.37 -29.81,23.77 30.06,24.18 -4.34,7.28 -35.73,-13.87 -5.9,37.64 -8.62,0.11 -5.92,-37.93 -35.66,13.69" /><path
         id="path116"
         style="fill:#585f63;fill-opacity:1;fill-rule:nonzero;stroke:none"
         d="m 1603.26,1068.92 c -0.13,0.14 -0.28,0.26 -0.45,0.4 -7.51,7.05 -36.9,36.24 -47.98,44.83 -9.09,57.16 -29.69,158.65 -69.13,231.22 -57.79,106.35 -134.67,147.88 -134.67,147.88 0,0 74.15,-10.57 156.03,-131.07 56.12,-82.46 84.12,-216.7 96.2,-293.26 m -18.4,-124.248 c 22.69,-40.125 17.53,-73.945 17.53,-73.945 l -135.04,255.923 c 0,0 94.91,-141.689 117.51,-181.978 m -77.24,-65.692 c 0.44,-1.085 0.82,-2.121 1.26,-3.234 0.45,-1.269 1.01,-2.48 1.43,-3.613 9.86,-24.852 18.38,-46.844 22.5,-59.383 14.62,-43.828 -1.38,-64.531 -1.38,-64.531 l -79.22,265.551 c 0,0 32.07,-76.024 55.41,-134.79 m -51.71,-159.57 c 3.28,-46.058 -15.71,-74.398 -15.71,-74.398 l -21.86,269.203 c 0,0 34.24,-148.766 37.57,-194.805 m -257.76,500.67 c -123.14,-32.12 -138.23,-168.37 -138.23,-168.37 0,0 1.05,155.07 127.39,194.97 126.29,39.92 191.24,-59.99 191.24,-59.99 0,0 -57.17,65.51 -180.4,33.39 m 163.88,-510.111 c -0.61,-46.141 -21.99,-72.778 -21.99,-72.778 l 19.37,221.27 c 0,0 3.18,-102.281 2.62,-148.492 m -152.82,143.519 c -2.71,18.723 -25.33,28.157 -23.2,61.418 1.12,17.657 26.21,33.461 29.43,35.375 l -5.58,-87.222 c -0.23,-3.168 -0.42,-6.368 -0.65,-9.571 m 76.81,53.301 c -2.11,-33.258 -25.77,-39.758 -30.82,-58.008 0.13,2.02 0.27,4.047 0.39,6.028 l 5.79,90.761 c 2.94,-2.324 25.76,-21.121 24.64,-38.781 M 958.77,1233.2 v -39.74 -94.56 c -1.844,-32.27 -8.008,-171.091 -13.688,-301.83 -3.23,-72.98 -6.289,-143.34 -8.301,-191.191 v 0.09 c -0.929,-21.469 -1.621,-38.168 -2.058,-48.809 -0.27,-5.68 -0.422,-9.48 -0.528,-11.262 0,-0.789 -0.035,-1.269 -0.035,-1.269 0,0 -0.027,0.531 -0.051,1.41 -0.054,1.473 -0.168,4.012 -0.347,7.691 -0.024,1.348 -0.078,2.59 -0.188,4.168 -0.453,10.321 -1.101,26.25 -1.926,46.274 v 0.129 c -0.054,0.59 -0.054,1.09 -0.105,1.668 v -0.09 c -0.98,24.07 -2.289,53.75 -3.73,86.66 v 0.031 c -1.403,32.551 -2.958,68.211 -4.52,104.5 -5.66,130.473 -11.844,269.02 -13.723,301.54 v 94.85 39.74 218.44 c 0,57.4 -65.976,75.37 -65.976,75.37 0,0 115.176,11.92 115.176,-67.31 z M 934.133,228.59 c 0,0 -11.422,66.75 -11.422,148.961 0,82.25 11.422,166.738 11.422,166.738 0,0 11.531,-84.488 11.531,-166.738 0,-82.211 -11.531,-148.961 -11.531,-148.961 M 670.16,1220.93 c -123.187,32.15 -180.398,-33.37 -180.398,-33.37 0,0 64.941,99.86 191.238,59.96 126.313,-39.86 127.402,-194.97 127.402,-194.97 0,0 -15.089,136.28 -138.242,168.38 m -287.519,125.3 c -39.438,-72.56 -60.059,-174.05 -69.161,-231.21 -11.07,-8.61 -40.437,-37.77 -47.996,-44.86 -0.164,-0.1 -0.304,-0.23 -0.421,-0.39 12.082,76.61 40.07,210.85 96.23,293.28 81.836,120.47 156.02,131.08 156.02,131.08 0,0 -76.868,-41.54 -134.672,-147.9 m 45.468,-700.351 c 0,0 -18.976,28.34 -15.668,74.402 3.329,46.02 37.539,194.782 37.539,194.782 z m -91.195,103.223 c 0,0 -15.992,20.687 -1.43,64.468 4.18,12.59 12.625,34.559 22.5,59.383 0.45,1.184 1,2.402 1.418,3.645 0.453,1.113 0.852,2.136 1.274,3.25 23.347,58.742 55.469,134.792 55.469,134.792 z m 274.356,99.679 c -5.047,18.25 -28.676,24.75 -30.797,58.008 -1.141,17.66 21.699,36.457 24.64,38.781 l 5.84,-91.289 c 0.067,-1.84 0.207,-3.64 0.317,-5.5 m 69.214,66.125 c 2.11,-33.261 -20.523,-42.695 -23.195,-61.418 -0.258,3.762 -0.516,7.512 -0.766,11.242 l -5.472,85.551 c 3.183,-1.914 28.281,-17.718 29.433,-35.375 m -171.601,-55.597 19.398,-221.25 c 0,0 -21.386,26.652 -21.988,72.75 -0.512,46.25 2.59,148.5 2.59,148.5 m -242.949,12.289 c 0,0 -5.164,33.789 17.527,73.972 22.59,40.278 117.531,182.01 117.531,182.01 z M 1414.67,1522.28 c -64.16,35.29 -182.57,40.16 -222.84,-5.9 -43.64,-50.07 -35.66,-106.7 -12.58,-144.63 6.85,-11.35 19.57,-60.72 -24.83,-83.48 -32.51,-20.12 -64.79,-21.13 -72.24,-21.08 v 0.08 c 0,0 -44.47,-6.47 -48.94,18.35 -27.15,184.02 32.15,297.01 32.15,297.01 0,0 -23.14,-26.46 -67.995,-29.08 -44.915,-2.67 -91.813,33.65 -115.282,40.93 -22.211,6.92 -45.242,0.03 -53.937,-28.13 l -6.692,-15.47 c 0,0 -57.336,-10.2 -57.336,-69.02 0,0 32.672,18.1 67.786,-5.71 2.109,-1.57 15.199,-11.45 23.109,-26.18 0,-24 5.621,-108.78 -17.051,-159.91 -13.859,-24.82 -51.82,-21.91 -51.82,-21.91 v -0.11 c -7.461,0 -39.77,0.98 -72.281,21.07 -44.387,22.82 -31.668,72.17 -24.797,83.51 23.09,37.94 31.019,94.59 -12.578,144.61 -40.317,46.06 -158.735,41.16 -222.864,5.9 C 189.551,1358.14 217.813,994.551 225.035,986.277 L 400.992,1166.34 C 396.313,1158.49 265.32,946.41 265.32,946.41 240.73,908.004 256.992,827.82 270.082,819.422 l 141.59,231.098 c -1.16,-3.41 -90.461,-228.668 -90.461,-228.668 -16.785,-42.461 14.543,-118.024 28.891,-123.813 L 436.344,934.254 394.352,718.371 C 385.953,673.57 431.051,605.34 446.363,602.469 L 487.336,863.25 V 698.102 c 0,-45.633 56.945,-104.301 72.508,-104.301 v 122.75 68.969 c 0,28.531 -5.543,64.218 -31.985,81.929 -66.164,52.938 -72.23,116.375 -62.687,174.401 10.558,64.37 68.004,135.24 150.75,135.24 82.769,0 147.98,-57.47 159.891,-139.44 10.359,-71.537 9.796,-67.498 9.429,-114.705 -0.871,-19.328 -5.941,-36.328 -13.109,-50.996 -0.082,0.02 -0.082,0.078 -0.129,0.078 -12.512,-25.488 -27.633,-42.476 -41.352,-53.566 -23.316,-18.77 -36.929,-33.332 -40.742,-72.512 -0.558,-5.578 -0.629,-11.418 -0.16,-17.558 0.305,-3.813 0.641,-8.243 1.012,-13.051 C 682.91,705.102 672.473,691.488 660.141,676 l -6.02,94.191 12.289,0.821 -2.558,40.367 -3.918,-0.238 -0.231,3.988 c 3.617,29.133 48.75,53.957 45.887,99.035 -3.008,46.477 -52.738,51.285 -52.129,59.824 l -0.078,1.114 -0.789,12.691 c 14.054,5.23 27.117,13.867 37.719,25.977 l -3.512,54.89 c -16,14.06 -35.449,21.62 -55.207,22.99 l 5.027,51.74 -41.851,-2.54 11.375,-50.84 c -19.332,-3.9 -37.606,-13.87 -51.665,-29.81 l 3.493,-54.88 c 12.109,-10.629 26.121,-17.562 40.765,-20.968 l 0.926,-14.43 h -0.019 l 0.078,-1.145 c 1.679,-8.359 -47.043,-19.425 -44.114,-65.929 2.911,-45.047 50.793,-63.95 58.114,-92.348 l 0.16,-2.289 -3.883,-0.27 2.594,-40.402 12.261,0.801 8.004,-125.449 c -34.546,-40.493 -75.918,-82.969 -111.945,-100.692 -41.691,-20.461 -67.891,-4.328 -87.164,-4.488 -19.172,-0.109 -30.566,-4.039 -36.809,-8.859 -7.046,-5.262 -6.968,-14.653 -6.968,-14.653 -8.86,-0.82 -28.418,-20.879 -19.879,-48.187 20.172,39.207 76.422,31.437 76.422,31.437 0,0 -23.922,-7.719 -26.805,-9.148 -17.156,-8.281 -25.57,-16.61 -29.141,-23.66 -4.066,-7.801 0.114,-18.192 0.114,-18.192 -7.774,-4.461 -18.012,-27.66 1.429,-48.59 2.352,29.11 45.282,60.332 67.731,61.2 -20.442,-16.2 -34.531,-52.207 -34.742,-60.137 -0.352,-8.891 9.668,-17.133 9.668,-17.133 -4.989,-7.488 -4.266,-32.699 22.32,-43.25 -10.328,27.281 14.465,65.91 14.465,65.91 0,0 25.508,44.121 75.015,39.832 8.102,-0.601 15.532,-4.492 21.403,-13.351 5.859,-8.961 12.129,-44.289 -5.871,-67.219 28.488,2.059 36.789,26.008 34.23,34.519 0,0 12.063,5 14.32,13.508 2.2,7.532 1.719,19.614 -5.199,37.543 -2.383,6.367 -14.109,34.258 -18.004,44.84 -1.773,8.77 23.551,36.309 50.891,62.891 l 1.902,-29.66 -4.949,-0.321 10.793,-168.562 9.465,0.609 2.883,-45.238 20.171,1.269 -2.882,45.282 9.457,0.589 -10.754,168.571 -4.863,-0.36 -3.489,53.911 c 12.895,11.847 24.18,21.707 30.606,27.117 1.793,-35.578 3.043,-64.258 3.043,-64.258 l 73.597,74.277 c -0.027,-0.16 -0.027,-0.359 -0.078,-0.527 l 17.528,17.48 14.914,14.879 c -14.262,-69.898 -85.02,-138.519 -85.02,-138.519 0,0 2.957,-0.11 7.848,-0.11 14.539,0 46.113,0.45 65.371,3.86 36.152,57.98 65.988,123.879 80.828,198.039 3.031,-149.629 -98.348,-289.512 -142.871,-343.602 -12.445,-15.136 -20.438,-23.519 -20.438,-23.519 0,0 0.868,-0.028 2.59,-0.09 h 3.16 c 15.93,0 61.739,0.769 97.551,9.812 30.688,42.45 66.508,165.758 76.66,220.481 0,-2.641 0,-5.152 -0.019,-7.692 0,-2.562 -0.059,-5.128 -0.059,-7.621 -0.055,-3.007 -0.113,-5.968 -0.222,-8.929 -0.024,-2.27 -0.083,-4.5 -0.149,-6.711 -0.086,-2.84 -0.16,-5.688 -0.269,-8.379 -0.122,-4.078 -0.34,-7.988 -0.524,-11.801 -0.133,-2.738 -0.297,-5.277 -0.476,-7.871 -0.133,-1.746 -0.192,-3.52 -0.344,-5.219 -0.16,-2.539 -0.379,-5.09 -0.531,-7.527 -0.137,-1.422 -0.27,-2.832 -0.395,-4.223 -0.371,-4.527 -0.762,-8.89 -1.273,-13.008 -0.098,-1.14 -0.27,-2.25 -0.36,-3.363 -0.219,-2.308 -0.543,-4.519 -0.82,-6.738 -0.109,-1.11 -0.27,-2.168 -0.43,-3.25 -0.949,-7.25 -2.031,-13.969 -3.121,-20.149 -0.141,-0.55 -0.226,-1.16 -0.34,-1.769 -8.492,-46.344 -19.695,-65.141 -19.695,-96.332 0,-57.981 38.434,-127.078 59.035,-160.051 0.098,-0.109 0.098,-0.211 0.184,-0.269 7.476,-11.891 12.605,-19.11 12.605,-19.11 0,0 5.18,7.219 12.613,19.141 0.047,0.078 0.098,0.129 0.161,0.238 20.668,32.973 59.046,102.07 59.046,160.051 0,50.219 -29.015,68.18 -29.015,220.691 10.098,-54.73 45.945,-178.14 76.655,-220.59 44.1,-11.132 103.32,-9.722 103.32,-9.722 0,0 -167.229,175.66 -163.346,367.222 14.856,-74.222 44.726,-140.16 80.866,-198.14 25.69,-4.571 73.17,-3.75 73.17,-3.75 0,0 -70.77,68.621 -85.01,138.519 l 105.95,-106.961 c 0,0 1.4,30.93 3.25,68.422 6.22,-5.211 16.76,-14.461 28.92,-25.543 l -3.78,-58.797 -4.86,0.36 -10.78,-168.571 9.46,-0.589 -2.91,-45.282 20.17,-1.269 2.93,45.238 9.44,-0.609 10.76,168.562 -4.89,0.321 2.19,34.578 c 27.9,-26.989 54.2,-55.391 52.43,-64.328 -3.94,-10.551 -15.63,-38.481 -18,-44.801 -6.95,-17.903 -7.43,-30.012 -5.24,-37.571 2.33,-8.492 14.33,-13.492 14.33,-13.492 -2.54,-8.558 5.76,-32.488 34.29,-34.519 -18.06,22.871 -11.79,58.242 -5.87,67.179 5.84,8.832 13.3,12.731 21.36,13.352 49.49,4.309 75,-39.82 75,-39.82 0,0 24.8,-38.621 14.46,-65.871 26.59,10.492 27.3,35.711 22.34,43.191 0,0 9.96,8.27 9.7,17.16 -0.26,7.93 -14.3,43.93 -34.74,60.141 22.4,-0.879 65.33,-32.071 67.76,-61.172 19.37,20.91 9.18,44.09 1.37,48.562 0,0 4.18,10.387 0.11,18.161 -3.57,7.058 -11.95,15.437 -29.16,23.707 -2.88,1.441 -26.78,9.101 -26.78,9.101 0,0 56.25,7.781 76.43,-31.398 8.54,27.25 -10.98,47.34 -19.93,48.207 0,0 0.15,9.359 -6.88,14.621 -6.29,4.84 -17.68,8.75 -36.79,8.89 -19.33,0.098 -50.84,-17.089 -92.53,3.399 -35.77,17.5 -75.34,59.859 -108.34,100.312 l 7.85,123.399 12.26,-0.801 2.57,40.402 -3.85,0.27 0.12,2.289 c 7.38,28.398 55.23,47.301 58.11,92.348 2.96,46.504 -45.78,57.57 -44.06,65.929 l 0.01,0.641 0.96,14.934 c 14.62,3.406 28.65,10.339 40.71,20.968 l 3.52,54.88 c -14.04,15.94 -32.3,25.91 -51.63,29.81 l 11.37,50.84 -41.86,2.54 5.03,-51.74 c -19.75,-1.39 -39.23,-8.93 -55.22,-22.99 l -3.52,-54.89 c 10.65,-12.05 23.68,-20.747 37.74,-25.977 l -0.79,-12.691 h -0.03 l -0.07,-1.114 c 0.63,-8.539 -49.12,-13.347 -52.08,-59.824 -2.9,-45.078 42.27,-69.902 45.87,-99.035 l -0.27,-3.988 -3.86,0.238 -2.61,-40.367 12.29,-0.821 -5.76,-90.55 c -11.46,15.05 -21.21,28.48 -28.74,38.609 0.23,3.352 0.45,6.441 0.71,9.289 0.48,6.09 0.4,11.961 -0.13,17.563 -3.8,39.148 -17.47,53.75 -40.8,72.519 -13.72,11.051 -28.8,28.051 -41.31,53.555 -0.02,-0.047 -0.02,-0.078 -0.13,-0.078 -7.17,14.668 -12.27,31.699 -13.12,50.996 -0.34,47.16 -0.89,43.144 9.44,114.656 11.92,82 77.09,139.47 159.89,139.47 82.74,0 140.2,-70.87 150.74,-135.24 9.54,-58.062 3.49,-121.472 -62.71,-174.402 -26.41,-17.719 -31.96,-53.367 -31.96,-81.906 V 715.68 592.93 c 15.6,0 72.51,58.711 72.51,104.3 v 165.149 l 40.95,-260.738 c 15.34,2.8 60.47,71.05 51.98,115.859 l -41.93,215.855 86.21,-236.183 c 14.41,5.789 45.69,81.367 28.92,123.797 0,0 -89.3,225.291 -90.46,228.651 l 141.59,-231.081 c 13.06,8.473 29.35,88.645 4.74,127.031 0,0 -130.97,212.04 -135.63,219.89 l 175.91,-180.062 c 7.25,8.293 35.48,371.862 -228.59,536.882" /></g></g></svg>